<?xml version="1.0" standalone="no"?>
<!DOCTYPE svg PUBLIC "-//W3C//DTD SVG 20010904//EN"
 "http://www.w3.org/TR/2001/REC-SVG-20010904/DTD/svg10.dtd">
<svg version="1.0" xmlns="http://www.w3.org/2000/svg"
 width="700.000000pt" height="700.000000pt" viewBox="0 0 700.000000 700.000000"
 preserveAspectRatio="xMidYMid meet">
<metadata>
Created by potrace 1.14, written by Peter Selinger 2001-2017
</metadata>
<g transform="translate(0.000000,700.000000) scale(0.100000,-0.100000)"
fill="#000000" stroke="none">
<path d="M3457 5594 c-1 -1 -49 -4 -107 -8 -58 -3 -114 -8 -125 -10 -11 -2
-40 -7 -65 -11 -84 -14 -95 -16 -174 -36 -646 -164 -1174 -625 -1429 -1249
-59 -144 -115 -358 -131 -500 -3 -25 -8 -67 -11 -93 -6 -53 -7 -323 -1 -372 2
-16 6 -57 10 -90 24 -206 109 -477 212 -674 63 -120 72 -136 133 -226 283
-417 711 -719 1201 -849 52 -14 109 -28 125 -31 49 -9 166 -25 220 -31 55 -6
322 -6 370 0 17 2 59 7 95 11 36 4 67 8 70 10 3 2 26 6 50 10 134 19 347 92
525 180 398 195 719 508 929 907 68 129 153 344 170 430 2 13 11 52 20 88 34
146 47 266 48 450 1 327 -64 610 -208 905 -69 141 -79 160 -139 250 -46 70
-37 58 -119 160 -271 341 -669 598 -1096 709 -52 14 -106 27 -120 30 -36 6
-90 15 -125 21 -44 7 -322 24 -328 19z m233 -589 c240 -31 497 -132 694 -273
84 -60 239 -207 298 -282 298 -378 402 -859 286 -1325 -88 -355 -329 -692
-638 -894 -126 -82 -355 -181 -472 -205 -13 -3 -48 -10 -78 -16 -163 -32 -383
-32 -562 0 -170 31 -398 123 -548 221 -191 125 -384 331 -486 519 -10 19 -24
42 -30 50 -18 25 -101 240 -119 307 -37 145 -49 245 -49 393 0 151 12 246 50
388 79 303 258 584 494 777 76 61 205 149 246 167 16 6 36 17 44 24 29 22 206
87 319 115 63 16 153 32 200 36 47 3 87 7 89 8 5 5 212 -4 262 -10z"/>
<path d="M2831 4166 l-133 -133 261 -264 c144 -145 261 -266 261 -269 0 -3
-117 -124 -261 -269 l-261 -264 134 -134 135 -134 264 260 c145 144 266 261
269 261 3 0 124 -117 269 -260 145 -143 264 -260 265 -260 1 0 61 60 134 133
l133 134 -260 264 c-144 145 -261 266 -261 269 0 3 117 124 261 269 l261 264
-134 134 -134 134 -265 -260 c-145 -144 -266 -261 -269 -261 -3 0 -124 117
-268 260 -145 143 -265 260 -266 260 -1 0 -61 -60 -135 -134z"/>
</g>
</svg>
